<?xml version="1.0" encoding="UTF-8"?><svg id="Layer_1" xmlns="http://www.w3.org/2000/svg" viewBox="0 0 247.63 353.85"><defs><style>.cls-1{fill:#522b71;}.cls-1,.cls-2,.cls-3,.cls-4{stroke-width:0px;}.cls-2{opacity:.74;}.cls-2,.cls-3{fill:#522b71;}.cls-5{stroke:#000;}.cls-5,.cls-6{fill:none;stroke-miterlimit:10;stroke-width:.5px;}.cls-4{fill:#fff;}.cls-6{stroke:#522b71;}</style></defs><line class="cls-5" x1="247.63" x2="247.63" y2="353.85"/><line class="cls-6" x1="26.36" x2="26.36" y2="353.85"/><line class="cls-6" x1="122.58" x2="122.58" y2="353.85"/><line class="cls-6" x1="122.58" y1="34.82" x2="247.42" y2="34.82"/><line class="cls-6" x1="122.58" y1="69.16" x2="247.42" y2="69.16"/><line class="cls-6" x1="122.58" y1="103.5" x2="247.42" y2="103.5"/><line class="cls-6" y1="103.5" x2="26.36" y2="103.5"/><line class="cls-6" y1="69.16" x2="26.36" y2="69.16"/><line class="cls-6" y1="34.82" x2="26.36" y2="34.82"/><line class="cls-6" y1="137.84" x2="122.58" y2="137.84"/><line class="cls-6" y1="172.17" x2="247.42" y2="172.17"/><line class="cls-6" y1="216.26" x2="122.58" y2="216.26"/><line class="cls-6" x1="-.92" y1="251.28" x2="247.42" y2="251.28"/><line class="cls-6" x1="-.92" y1="285.75" x2="247.42" y2="285.75"/><line class="cls-6" x1="-1.61" y1="319.68" x2="247.42" y2="319.68"/><line class="cls-6" x1="52.09" y1="353.85" x2="247.42" y2="353.85"/><rect class="cls-6" width="247.42" height="353.85"/><rect class="cls-2" width="26.36" height="353.85"/><path class="cls-4" d="M4.39,20.48v-.7l2.37-2.41c.48-.49.5-.84.5-1.04,0-.61-.42-1.13-1.02-1.13-.63,0-1.05.5-1.05,1.27v.11h-.83v-.1c0-1.34.94-2.04,1.86-2.04,1.05,0,1.86.86,1.86,1.91,0,.58-.18,1-.83,1.67l-1.64,1.69h2.48v.76h-3.7Z"/><path class="cls-4" d="M12.64,18.7c0,1.3-1.08,1.9-1.93,1.9s-1.9-.65-1.9-1.97v-2.2c0-1.25.95-1.97,1.93-1.97,1.08,0,1.9.87,1.9,1.92v2.33ZM11.8,16.37c0-.59-.33-1.16-1.08-1.16-.7,0-1.09.53-1.09,1.16v2.21c0,.68.36,1.26,1.09,1.26.53,0,1.08-.42,1.08-1.1v-2.37Z"/><path class="cls-4" d="M17.08,18.7c0,1.3-1.08,1.9-1.93,1.9s-1.9-.65-1.9-1.97v-2.2c0-1.25.95-1.97,1.93-1.97,1.08,0,1.9.87,1.9,1.92v2.33ZM16.24,16.37c0-.59-.33-1.16-1.08-1.16-.7,0-1.09.53-1.09,1.16v2.21c0,.68.36,1.26,1.09,1.26.53,0,1.08-.42,1.08-1.1v-2.37Z"/><path class="cls-4" d="M20.18,20.48v-.93h-2.7v-.81l2.7-4.18h.83v4.23h.62v.76h-.62v.93h-.83ZM20.18,15.95h-.02l-1.73,2.85h1.74v-2.85Z"/><path class="cls-3" d="M40.78,72.02l-1.95-2.74h-.02v2.74h-.86v-5.92h1.9c1.42,0,2.05.75,2.05,1.97,0,1.13-.86,1.72-1.7,1.74l1.66,2.21h-1.08ZM39.44,69.16c1.01,0,1.59-.39,1.59-1.16,0-.68-.54-1.1-1.31-1.1h-.91v2.26h.63Z"/><path class="cls-3" d="M44.84,72.13c-1.25,0-2.36-1.06-2.36-2.31,0-1.35,1.06-2.35,2.42-2.35,1.22,0,2.38.96,2.36,2.37-.02,1.18-1.01,2.29-2.42,2.29ZM44.87,68.23c-.83,0-1.55.7-1.55,1.57s.7,1.58,1.54,1.58,1.58-.69,1.58-1.58-.7-1.56-1.57-1.56Z"/><path class="cls-3" d="M51.78,71.44c-.34.46-.9.7-1.53.7-1.27,0-2.37-1.1-2.37-2.29,0-1.34,1.04-2.37,2.38-2.37.58,0,1.18.24,1.54.63v-.51h.83v3.85c0,1.44-.89,2.33-2.39,2.33-1.02,0-1.81-.54-2.19-1.4h.93c.31.44.73.64,1.27.64,1.02,0,1.55-.55,1.55-1.57h-.02ZM51.79,69.81c0-1.04-.79-1.58-1.56-1.58-.82,0-1.52.71-1.52,1.58s.7,1.57,1.53,1.57c.97,0,1.55-.85,1.55-1.57Z"/><path class="cls-3" d="M54.18,70.17c.19.74.78,1.21,1.46,1.21.52,0,1.01-.27,1.26-.74h.83c-.34.91-1.17,1.5-2.13,1.5-1.25,0-2.25-1.1-2.25-2.29,0-1.4,1.06-2.37,2.23-2.37,1.3,0,2.29,1.01,2.29,2.28,0,.14,0,.26-.02.42h-3.67ZM57.04,69.53c-.06-.75-.73-1.3-1.44-1.3s-1.36.54-1.42,1.3h2.86Z"/><path class="cls-3" d="M58.71,72.02v-4.43h.78v.4h.02c.2-.3.54-.49,1.13-.52v.86c-.72.02-1.09.46-1.09,1.21v2.49h-.83Z"/><path class="cls-3" d="M63.61,72.02v-5.92h2.99v.79h-2.13v1.77h2.13v.79h-2.13v2.56h-.86Z"/><path class="cls-3" d="M67.93,70.17c.19.74.78,1.21,1.46,1.21.52,0,1.01-.27,1.26-.74h.83c-.34.91-1.17,1.5-2.13,1.5-1.25,0-2.25-1.1-2.25-2.29,0-1.4,1.06-2.37,2.23-2.37,1.3,0,2.29,1.01,2.29,2.28,0,.14,0,.26-.02.42h-3.67ZM70.79,69.53c-.06-.75-.73-1.3-1.44-1.3s-1.36.54-1.42,1.3h2.86Z"/><path class="cls-3" d="M76.11,72.02v-.63h-.02c-.34.48-.92.74-1.57.74-1.29,0-2.3-.98-2.3-2.28s.96-2.38,2.28-2.38c.6,0,1.17.22,1.53.66h.02v-2.03h.83v5.92h-.77ZM74.57,68.23c-.85,0-1.51.71-1.51,1.58s.68,1.56,1.51,1.56,1.54-.69,1.54-1.53c0-.9-.61-1.62-1.54-1.62Z"/><path class="cls-3" d="M78.56,70.17c.19.74.78,1.21,1.46,1.21.52,0,1.01-.27,1.26-.74h.83c-.34.91-1.18,1.5-2.13,1.5-1.25,0-2.25-1.1-2.25-2.29,0-1.4,1.06-2.37,2.23-2.37,1.3,0,2.29,1.01,2.29,2.28,0,.14,0,.26-.02.42h-3.67ZM81.43,69.53c-.06-.75-.73-1.3-1.44-1.3s-1.36.54-1.42,1.3h2.86Z"/><path class="cls-3" d="M83.09,72.02v-4.43h.78v.4h.02c.2-.3.54-.49,1.13-.52v.86c-.72.02-1.09.46-1.09,1.21v2.49h-.83Z"/><path class="cls-3" d="M86.19,70.17c.19.74.78,1.21,1.46,1.21.52,0,1.01-.27,1.26-.74h.83c-.34.91-1.17,1.5-2.13,1.5-1.25,0-2.25-1.1-2.25-2.29,0-1.4,1.06-2.37,2.23-2.37,1.3,0,2.29,1.01,2.29,2.28,0,.14,0,.26-.02.42h-3.67ZM89.06,69.53c-.06-.75-.73-1.3-1.44-1.3s-1.36.54-1.42,1.3h2.86Z"/><path class="cls-3" d="M90.72,72.02v-4.43h.78v.4h.02c.2-.3.54-.49,1.13-.52v.86c-.72.02-1.09.46-1.09,1.21v2.49h-.83Z"/><path class="cls-3" d="M97.96,74.08c-1.36-.7-2.42-2.28-2.42-4.08,0-1.58.91-3.24,2.37-4.01v1.03c-1.1.97-1.5,1.78-1.5,2.97,0,1.27.47,2.18,1.55,3.05v1.04Z"/><path class="cls-3" d="M100.02,66.86l-.22,1.31c.26-.18.51-.24.82-.24,1.17,0,1.98.92,1.98,2.04,0,1.2-.82,2.16-2.02,2.16-1.08,0-1.88-.74-2.01-1.9h.83c.16.76.61,1.14,1.19,1.14.65,0,1.18-.6,1.18-1.3,0-.74-.46-1.38-1.15-1.38-.48,0-.82.21-1.06.62l-.72-.17.5-3.04h2.7v.76h-2.01Z"/><path class="cls-3" d="M105.95,72.02l-1.1-1.58-1.07,1.58h-.97l1.54-2.27-1.48-2.16h1.01l.98,1.46.97-1.46h1.01l-1.45,2.16,1.54,2.27h-.98Z"/><path class="cls-3" d="M107.39,73.04c1.09-.97,1.5-1.78,1.5-2.97,0-1.27-.47-2.18-1.55-3.05v-1.04c1.36.7,2.42,2.28,2.42,4.08,0,1.58-.91,3.24-2.37,4.01v-1.03Z"/><path class="cls-1" d="M151.23,20.48v-5h-.02l-1.99,5h-.52l-2-5h-.02v5h-.86v-5.92h1.36l1.78,4.53,1.78-4.53h1.36v5.92h-.86Z"/><path class="cls-1" d="M156.86,20.48v-.69h-.02c-.31.53-.87.8-1.5.8-1.29,0-2.35-.98-2.35-2.25,0-1.42,1.02-2.41,2.32-2.41.65,0,1.19.24,1.54.74h.02v-.62h.83v4.43h-.83ZM156.87,18.28c0-.86-.62-1.58-1.54-1.58-.83,0-1.51.71-1.51,1.58s.68,1.56,1.51,1.56,1.54-.72,1.54-1.56Z"/><path class="cls-1" d="M158.76,20.48v-4.43h.78v.4h.02c.2-.3.54-.49,1.13-.52v.86c-.72.02-1.09.46-1.09,1.21v2.49h-.83Z"/><path class="cls-1" d="M161.49,15.54v-.98h.83v.98h-.83ZM161.49,20.48v-4.43h.83v4.43h-.83Z"/><path class="cls-1" d="M167.03,20.48v-.69h-.02c-.31.53-.87.8-1.5.8-1.29,0-2.35-.98-2.35-2.25,0-1.42,1.02-2.41,2.32-2.41.65,0,1.19.24,1.54.74h.02v-.62h.83v4.43h-.83ZM167.05,18.28c0-.86-.62-1.58-1.54-1.58-.83,0-1.51.71-1.51,1.58s.68,1.56,1.51,1.56,1.54-.72,1.54-1.56Z"/><path class="cls-1" d="M173.56,16.1c0-.54-.34-.86-.83-.86-.42,0-.79.38-.79.81s.28.66.86.84c1.28.41,1.75.89,1.75,1.91s-.77,1.79-1.82,1.79-1.81-.75-1.82-1.86h.86c0,.64.38,1.07.96,1.07s.95-.42.95-1c0-.43-.19-.7-.82-.92-1.46-.5-1.78-.98-1.78-1.81,0-.9.74-1.62,1.66-1.62.98,0,1.68.62,1.7,1.65h-.86Z"/><path class="cls-1" d="M178.39,20.48v-2.41c0-.95-.37-1.38-1.1-1.38s-1.17.53-1.17,1.39v2.4h-.83v-5.92h.83v1.96h.02c.26-.39.69-.59,1.24-.59,1.06,0,1.85.67,1.85,1.89v2.66h-.83Z"/><path class="cls-1" d="M183.91,20.48v-.69h-.02c-.31.53-.87.8-1.5.8-1.29,0-2.35-.98-2.35-2.25,0-1.42,1.02-2.41,2.32-2.41.65,0,1.19.24,1.54.74h.02v-.62h.83v4.43h-.83ZM183.92,18.28c0-.86-.62-1.58-1.54-1.58-.83,0-1.51.71-1.51,1.58s.68,1.56,1.51,1.56,1.54-.72,1.54-1.56Z"/><path class="cls-1" d="M185.81,20.48v-4.43h.78v.4h.02c.2-.3.54-.49,1.13-.52v.86c-.72.02-1.09.46-1.09,1.21v2.49h-.83Z"/><path class="cls-1" d="M191.95,20.48v-.69h-.02c-.31.53-.87.8-1.5.8-1.29,0-2.35-.98-2.35-2.25,0-1.42,1.02-2.41,2.32-2.41.65,0,1.19.24,1.54.74h.02v-.62h.83v4.43h-.83ZM191.96,18.28c0-.86-.62-1.58-1.54-1.58-.83,0-1.51.71-1.51,1.58s.68,1.56,1.51,1.56,1.54-.72,1.54-1.56Z"/><path class="cls-1" d="M194.01,21.96v-5.91h.76v.68h.02c.38-.54.94-.8,1.58-.8,1.32,0,2.29,1.02,2.29,2.39,0,1.25-.97,2.27-2.24,2.27-.67,0-1.27-.27-1.56-.75h-.02v2.12h-.83ZM197.83,18.28c0-.81-.64-1.58-1.53-1.58-.83,0-1.47.74-1.47,1.57s.64,1.58,1.5,1.58,1.5-.71,1.5-1.56Z"/><path class="cls-1" d="M201.63,20.6c-1.25,0-2.36-1.06-2.36-2.31,0-1.35,1.06-2.35,2.42-2.35,1.22,0,2.38.96,2.36,2.37-.02,1.18-1.01,2.29-2.42,2.29ZM201.65,16.69c-.83,0-1.55.7-1.55,1.57s.7,1.58,1.54,1.58,1.58-.69,1.58-1.58-.7-1.56-1.57-1.56Z"/><path class="cls-1" d="M206.07,20.48l-1.76-4.43h.89l1.16,3.17h.02l1.13-3.17h.89l-1.74,4.43h-.58Z"/><path class="cls-1" d="M212.51,20.48v-.69h-.02c-.31.53-.87.8-1.5.8-1.29,0-2.35-.98-2.35-2.25,0-1.42,1.02-2.41,2.32-2.41.65,0,1.19.24,1.54.74h.02v-.62h.83v4.43h-.83ZM212.53,18.28c0-.86-.62-1.58-1.54-1.58-.83,0-1.51.71-1.51,1.58s.68,1.56,1.51,1.56,1.54-.72,1.54-1.56Z"/><path class="cls-1" d="M147.69,54.85l-2.38-5.92h.93l1.72,4.44,1.72-4.44h.91l-2.38,5.92h-.52Z"/><path class="cls-1" d="M151.02,53c.19.74.78,1.21,1.46,1.21.52,0,1.01-.27,1.26-.74h.83c-.34.91-1.17,1.5-2.13,1.5-1.25,0-2.25-1.1-2.25-2.29,0-1.4,1.06-2.37,2.23-2.37,1.3,0,2.29,1.01,2.29,2.28,0,.14,0,.26-.02.42h-3.67ZM153.88,52.36c-.06-.75-.73-1.3-1.44-1.3s-1.36.54-1.42,1.3h2.86Z"/><path class="cls-1" d="M158.64,54.85v-2.41c0-.94-.37-1.38-1.1-1.38s-1.17.54-1.17,1.37v2.42h-.83v-4.43h.78v.47h.02c.33-.42.78-.59,1.29-.59,1.06,0,1.85.67,1.85,1.89v2.65h-.83Z"/><path class="cls-1" d="M163.54,54.85v-.48h-.02c-.22.38-.72.59-1.3.59-.95,0-1.85-.51-1.85-2.07v-2.47h.83v2.41c0,.93.34,1.38,1.1,1.38s1.16-.54,1.16-1.39v-2.39h.83v4.43h-.76Z"/><path class="cls-1" d="M167.12,51.6c-.04-.32-.22-.54-.57-.54-.32,0-.52.22-.52.47,0,.38.38.49.82.62.62.19,1.2.57,1.2,1.39s-.62,1.42-1.49,1.42c-.8,0-1.57-.54-1.57-1.57h.83c.04.54.31.81.75.81.38,0,.64-.25.64-.61,0-.3-.23-.5-.75-.67-1.09-.34-1.27-.82-1.27-1.32,0-.78.66-1.3,1.39-1.3s1.33.51,1.36,1.29h-.83Z"/><path class="cls-1" d="M175.09,54.85l-1.07-4.13h-.02l-1.07,4.13h-.76l-1.66-5.92h.9l1.13,4.45h.02l1.14-4.45h.63l1.13,4.42h.02l1.15-4.42h.88l-1.66,5.92h-.76Z"/><path class="cls-1" d="M178.09,49.91v-.98h.83v.98h-.83ZM178.09,54.85v-4.43h.83v4.43h-.83Z"/><path class="cls-1" d="M180.04,54.85v-5.92h.83v5.92h-.83Z"/><path class="cls-1" d="M181.94,54.85v-5.92h.83v5.92h-.83Z"/><path class="cls-1" d="M183.85,49.91v-.98h.83v.98h-.83ZM183.85,54.85v-4.43h.83v4.43h-.83Z"/><path class="cls-1" d="M189.39,54.85v-.69h-.02c-.31.53-.87.8-1.5.8-1.29,0-2.35-.98-2.35-2.25,0-1.42,1.02-2.41,2.32-2.41.65,0,1.19.24,1.54.74h.02v-.62h.83v4.43h-.83ZM189.4,52.65c0-.86-.62-1.58-1.54-1.58-.83,0-1.51.71-1.51,1.58s.68,1.56,1.51,1.56,1.54-.72,1.54-1.56Z"/><path class="cls-1" d="M197.16,54.85v-2.48c0-.84-.35-1.31-1.05-1.31-.74,0-1.06.41-1.06,1.3v2.49h-.83v-2.57c0-.87-.41-1.22-1.01-1.22-.74,0-1.1.43-1.1,1.3v2.49h-.83v-4.43h.77v.48h.02c.36-.42.7-.6,1.27-.6s1.15.28,1.38.74c.32-.5.76-.74,1.46-.74,1.15,0,1.81.72,1.81,1.86v2.69h-.83Z"/><path class="cls-1" d="M200.8,51.6c-.04-.32-.22-.54-.57-.54-.32,0-.52.22-.52.47,0,.38.38.49.82.62.62.19,1.2.57,1.2,1.39s-.62,1.42-1.49,1.42c-.8,0-1.57-.54-1.57-1.57h.83c.04.54.31.81.75.81.38,0,.64-.25.64-.61,0-.3-.23-.5-.75-.67-1.09-.34-1.27-.82-1.27-1.32,0-.78.66-1.3,1.39-1.3s1.33.51,1.36,1.29h-.83Z"/><path class="cls-1" d="M147.69,140.7l-2.38-5.92h.93l1.72,4.44,1.72-4.44h.91l-2.38,5.92h-.52Z"/><path class="cls-1" d="M151.02,138.84c.19.74.78,1.21,1.46,1.21.52,0,1.01-.27,1.26-.74h.83c-.34.91-1.17,1.5-2.13,1.5-1.25,0-2.25-1.1-2.25-2.29,0-1.4,1.06-2.37,2.23-2.37,1.3,0,2.29,1.01,2.29,2.28,0,.14,0,.26-.02.42h-3.67ZM153.88,138.2c-.06-.75-.73-1.3-1.44-1.3s-1.36.54-1.42,1.3h2.86Z"/><path class="cls-1" d="M158.64,140.7v-2.41c0-.94-.37-1.38-1.1-1.38s-1.17.54-1.17,1.37v2.42h-.83v-4.43h.78v.47h.02c.33-.42.78-.59,1.29-.59,1.06,0,1.85.67,1.85,1.9v2.65h-.83Z"/><path class="cls-1" d="M163.54,140.7v-.48h-.02c-.22.38-.72.59-1.3.59-.95,0-1.85-.51-1.85-2.07v-2.47h.83v2.41c0,.93.34,1.38,1.1,1.38s1.16-.54,1.16-1.39v-2.39h.83v4.43h-.76Z"/><path class="cls-1" d="M167.12,137.44c-.04-.32-.22-.54-.57-.54-.32,0-.52.22-.52.47,0,.38.38.49.82.62.62.19,1.2.57,1.2,1.39s-.62,1.42-1.49,1.42c-.8,0-1.57-.54-1.57-1.57h.83c.04.54.31.81.75.81.38,0,.64-.25.64-.61,0-.3-.23-.5-.75-.67-1.09-.34-1.27-.82-1.27-1.32,0-.78.66-1.3,1.39-1.3s1.33.51,1.36,1.29h-.83Z"/><path class="cls-1" d="M175.09,140.7l-1.07-4.13h-.02l-1.07,4.13h-.76l-1.66-5.92h.9l1.13,4.45h.02l1.14-4.45h.63l1.13,4.42h.02l1.15-4.42h.88l-1.66,5.92h-.76Z"/><path class="cls-1" d="M178.09,135.75v-.98h.83v.98h-.83ZM178.09,140.7v-4.43h.83v4.43h-.83Z"/><path class="cls-1" d="M180.04,140.7v-5.92h.83v5.92h-.83Z"/><path class="cls-1" d="M181.94,140.7v-5.92h.83v5.92h-.83Z"/><path class="cls-1" d="M183.85,135.75v-.98h.83v.98h-.83ZM183.85,140.7v-4.43h.83v4.43h-.83Z"/><path class="cls-1" d="M189.39,140.7v-.69h-.02c-.31.53-.87.8-1.5.8-1.29,0-2.35-.98-2.35-2.25,0-1.42,1.02-2.41,2.32-2.41.65,0,1.19.24,1.54.74h.02v-.62h.83v4.43h-.83ZM189.4,138.49c0-.86-.62-1.58-1.54-1.58-.83,0-1.51.71-1.51,1.58s.68,1.56,1.51,1.56,1.54-.72,1.54-1.56Z"/><path class="cls-1" d="M197.16,140.7v-2.48c0-.84-.35-1.31-1.05-1.31-.74,0-1.06.41-1.06,1.3v2.49h-.83v-2.57c0-.87-.41-1.22-1.01-1.22-.74,0-1.1.43-1.1,1.3v2.49h-.83v-4.43h.77v.48h.02c.36-.42.7-.6,1.27-.6s1.15.28,1.38.74c.32-.5.76-.74,1.46-.74,1.15,0,1.81.72,1.81,1.86v2.69h-.83Z"/><path class="cls-1" d="M200.8,137.44c-.04-.32-.22-.54-.57-.54-.32,0-.52.22-.52.47,0,.38.38.49.82.62.62.19,1.2.57,1.2,1.39s-.62,1.42-1.49,1.42c-.8,0-1.57-.54-1.57-1.57h.83c.04.54.31.81.75.81.38,0,.64-.25.64-.61,0-.3-.23-.5-.75-.67-1.09-.34-1.27-.82-1.27-1.32,0-.78.66-1.3,1.39-1.3s1.33.51,1.36,1.29h-.83Z"/><path class="cls-1" d="M207.13,142.75c-1.36-.7-2.42-2.28-2.42-4.08,0-1.58.91-3.24,2.37-4.01v1.03c-1.1.97-1.5,1.78-1.5,2.97,0,1.27.47,2.18,1.55,3.05v1.04Z"/><path class="cls-1" d="M210.68,140.7l-1.1-1.58-1.07,1.58h-.97l1.54-2.27-1.48-2.16h1.01l.98,1.46.97-1.46h1.01l-1.45,2.16,1.54,2.27h-.98Z"/><path class="cls-1" d="M212.01,140.7v-.7l2.37-2.41c.48-.49.5-.84.5-1.04,0-.61-.42-1.13-1.02-1.13-.63,0-1.05.5-1.05,1.27v.11h-.83v-.1c0-1.34.94-2.04,1.86-2.04,1.05,0,1.86.86,1.86,1.91,0,.58-.18,1-.83,1.67l-1.64,1.69h2.48v.76h-3.7Z"/><path class="cls-1" d="M216.57,141.72c1.09-.97,1.5-1.78,1.5-2.97,0-1.27-.47-2.18-1.55-3.05v-1.04c1.36.7,2.42,2.28,2.42,4.08,0,1.58-.91,3.24-2.37,4.01v-1.03Z"/><path class="cls-1" d="M148.01,210.2c0-.54-.34-.86-.83-.86-.42,0-.79.38-.79.81s.28.66.86.84c1.28.41,1.75.89,1.75,1.91s-.77,1.79-1.82,1.79-1.81-.75-1.82-1.86h.86c0,.64.38,1.07.96,1.07s.95-.42.95-1c0-.43-.19-.7-.82-.92-1.46-.5-1.78-.98-1.78-1.81,0-.9.74-1.62,1.66-1.62.98,0,1.68.62,1.7,1.65h-.86Z"/><path class="cls-1" d="M150.59,212.73c.19.74.78,1.21,1.46,1.21.52,0,1.01-.27,1.26-.74h.83c-.34.91-1.17,1.5-2.13,1.5-1.25,0-2.25-1.1-2.25-2.29,0-1.4,1.06-2.37,2.23-2.37,1.3,0,2.29,1.01,2.29,2.28,0,.14,0,.26-.02.42h-3.67ZM153.45,212.09c-.06-.75-.73-1.3-1.44-1.3s-1.36.54-1.42,1.3h2.86Z"/><path class="cls-1" d="M155.12,214.59v-4.43h.78v.4h.02c.2-.3.54-.49,1.13-.52v.86c-.72.02-1.09.46-1.09,1.21v2.49h-.83Z"/><path class="cls-1" d="M158.22,212.73c.19.74.78,1.21,1.46,1.21.52,0,1.01-.27,1.26-.74h.83c-.34.91-1.17,1.5-2.13,1.5-1.25,0-2.25-1.1-2.25-2.29,0-1.4,1.06-2.37,2.23-2.37,1.3,0,2.29,1.01,2.29,2.28,0,.14,0,.26-.02.42h-3.67ZM161.08,212.09c-.06-.75-.73-1.3-1.44-1.3s-1.36.54-1.42,1.3h2.86Z"/><path class="cls-1" d="M165.84,214.59v-2.41c0-.94-.37-1.38-1.1-1.38s-1.17.54-1.17,1.37v2.42h-.83v-4.43h.78v.47h.02c.33-.42.78-.59,1.29-.59,1.06,0,1.85.67,1.85,1.9v2.65h-.83Z"/><path class="cls-1" d="M171.38,214.59v-.69h-.02c-.31.53-.87.8-1.5.8-1.29,0-2.35-.98-2.35-2.25,0-1.42,1.02-2.41,2.32-2.41.65,0,1.19.24,1.54.74h.02v-.62h.83v4.43h-.83ZM171.39,212.38c0-.86-.62-1.58-1.54-1.58-.83,0-1.51.71-1.51,1.58s.68,1.56,1.51,1.56,1.54-.72,1.54-1.56Z"/><path class="cls-1" d="M179.61,214.59l-1.07-4.13h-.02l-1.07,4.13h-.76l-1.66-5.92h.9l1.13,4.45h.02l1.14-4.45h.63l1.13,4.42h.02l1.15-4.42h.88l-1.66,5.92h-.76Z"/><path class="cls-1" d="M182.61,209.64v-.98h.83v.98h-.83ZM182.61,214.59v-4.43h.83v4.43h-.83Z"/><path class="cls-1" d="M184.56,214.59v-5.92h.83v5.92h-.83Z"/><path class="cls-1" d="M186.46,214.59v-5.92h.83v5.92h-.83Z"/><path class="cls-1" d="M188.37,209.64v-.98h.83v.98h-.83ZM188.37,214.59v-4.43h.83v4.43h-.83Z"/><path class="cls-1" d="M193.91,214.59v-.69h-.02c-.31.53-.87.8-1.5.8-1.29,0-2.35-.98-2.35-2.25,0-1.42,1.02-2.41,2.32-2.41.65,0,1.19.24,1.54.74h.02v-.62h.83v4.43h-.83ZM193.92,212.38c0-.86-.62-1.58-1.54-1.58-.83,0-1.51.71-1.51,1.58s.68,1.56,1.51,1.56,1.54-.72,1.54-1.56Z"/><path class="cls-1" d="M201.68,214.59v-2.48c0-.84-.35-1.31-1.05-1.31-.74,0-1.06.41-1.06,1.3v2.49h-.83v-2.57c0-.87-.41-1.22-1.01-1.22-.74,0-1.1.43-1.1,1.3v2.49h-.83v-4.43h.77v.48h.02c.36-.42.7-.6,1.27-.6s1.15.28,1.38.74c.32-.5.76-.74,1.46-.74,1.15,0,1.81.72,1.81,1.86v2.69h-.83Z"/><path class="cls-1" d="M205.32,211.33c-.04-.32-.22-.54-.57-.54-.32,0-.52.22-.52.47,0,.38.38.49.82.62.62.19,1.2.57,1.2,1.39s-.62,1.42-1.49,1.42c-.8,0-1.57-.54-1.57-1.57h.83c.04.54.31.81.75.81.38,0,.64-.25.64-.61,0-.3-.23-.5-.75-.67-1.09-.34-1.27-.82-1.27-1.32,0-.78.66-1.3,1.39-1.3s1.33.51,1.36,1.29h-.83Z"/><path class="cls-1" d="M211.65,216.64c-1.36-.7-2.42-2.28-2.42-4.08,0-1.58.91-3.24,2.37-4.01v1.03c-1.1.97-1.5,1.78-1.5,2.97,0,1.27.47,2.18,1.55,3.05v1.04Z"/><path class="cls-1" d="M215.2,214.59l-1.1-1.58-1.07,1.58h-.97l1.54-2.27-1.48-2.16h1.01l.98,1.46.97-1.46h1.01l-1.45,2.16,1.54,2.27h-.98Z"/><path class="cls-1" d="M216.52,214.59v-.7l2.37-2.41c.48-.49.5-.84.5-1.04,0-.61-.42-1.13-1.02-1.13-.63,0-1.05.5-1.05,1.27v.11h-.83v-.1c0-1.34.94-2.04,1.86-2.04,1.05,0,1.86.86,1.86,1.91,0,.58-.18,1-.83,1.67l-1.64,1.69h2.48v.76h-3.7Z"/><path class="cls-1" d="M221.08,215.61c1.1-.97,1.5-1.78,1.5-2.97,0-1.27-.47-2.18-1.55-3.05v-1.04c1.36.7,2.42,2.28,2.42,4.08,0,1.58-.91,3.24-2.37,4.01v-1.03Z"/><path class="cls-1" d="M148.01,299.98c0-.54-.34-.86-.83-.86-.42,0-.79.38-.79.81s.28.66.86.84c1.28.41,1.75.89,1.75,1.91s-.77,1.79-1.82,1.79-1.81-.75-1.82-1.86h.86c0,.64.38,1.07.96,1.07s.95-.42.95-1c0-.43-.19-.7-.82-.92-1.46-.5-1.78-.98-1.78-1.81,0-.9.74-1.62,1.66-1.62.98,0,1.68.62,1.7,1.65h-.86Z"/><path class="cls-1" d="M150.59,302.5c.19.74.78,1.21,1.46,1.21.52,0,1.01-.27,1.26-.74h.83c-.34.91-1.17,1.5-2.13,1.5-1.25,0-2.25-1.1-2.25-2.29,0-1.4,1.06-2.37,2.23-2.37,1.3,0,2.29,1.01,2.29,2.28,0,.14,0,.26-.02.42h-3.67ZM153.45,301.86c-.06-.75-.73-1.3-1.44-1.3s-1.36.54-1.42,1.3h2.86Z"/><path class="cls-1" d="M155.12,304.36v-4.43h.78v.4h.02c.2-.3.54-.49,1.13-.52v.86c-.72.02-1.09.46-1.09,1.21v2.49h-.83Z"/><path class="cls-1" d="M158.22,302.5c.19.74.78,1.21,1.46,1.21.52,0,1.01-.27,1.26-.74h.83c-.34.91-1.17,1.5-2.13,1.5-1.25,0-2.25-1.1-2.25-2.29,0-1.4,1.06-2.37,2.23-2.37,1.3,0,2.29,1.01,2.29,2.28,0,.14,0,.26-.02.42h-3.67ZM161.08,301.86c-.06-.75-.73-1.3-1.44-1.3s-1.36.54-1.42,1.3h2.86Z"/><path class="cls-1" d="M165.84,304.36v-2.41c0-.94-.37-1.38-1.1-1.38s-1.17.54-1.17,1.37v2.42h-.83v-4.43h.78v.47h.02c.33-.42.78-.59,1.29-.59,1.06,0,1.85.67,1.85,1.89v2.65h-.83Z"/><path class="cls-1" d="M171.38,304.36v-.69h-.02c-.31.53-.87.8-1.5.8-1.29,0-2.35-.98-2.35-2.25,0-1.42,1.02-2.41,2.32-2.41.65,0,1.19.24,1.54.74h.02v-.62h.83v4.43h-.83ZM171.39,302.15c0-.86-.62-1.58-1.54-1.58-.83,0-1.51.71-1.51,1.58s.68,1.56,1.51,1.56,1.54-.72,1.54-1.56Z"/><path class="cls-1" d="M179.61,304.36l-1.07-4.13h-.02l-1.07,4.13h-.76l-1.66-5.92h.9l1.13,4.45h.02l1.14-4.45h.63l1.13,4.42h.02l1.15-4.42h.88l-1.66,5.92h-.76Z"/><path class="cls-1" d="M182.61,299.42v-.98h.83v.98h-.83ZM182.61,304.36v-4.43h.83v4.43h-.83Z"/><path class="cls-1" d="M184.56,304.36v-5.92h.83v5.92h-.83Z"/><path class="cls-1" d="M186.46,304.36v-5.92h.83v5.92h-.83Z"/><path class="cls-1" d="M188.37,299.42v-.98h.83v.98h-.83ZM188.37,304.36v-4.43h.83v4.43h-.83Z"/><path class="cls-1" d="M193.91,304.36v-.69h-.02c-.31.53-.87.8-1.5.8-1.29,0-2.35-.98-2.35-2.25,0-1.42,1.02-2.41,2.32-2.41.65,0,1.19.24,1.54.74h.02v-.62h.83v4.43h-.83ZM193.92,302.15c0-.86-.62-1.58-1.54-1.58-.83,0-1.51.71-1.51,1.58s.68,1.56,1.51,1.56,1.54-.72,1.54-1.56Z"/><path class="cls-1" d="M201.68,304.36v-2.48c0-.84-.35-1.31-1.05-1.31-.74,0-1.06.41-1.06,1.3v2.49h-.83v-2.57c0-.87-.41-1.22-1.01-1.22-.74,0-1.1.43-1.1,1.3v2.49h-.83v-4.43h.77v.48h.02c.36-.42.7-.6,1.27-.6s1.15.28,1.38.74c.32-.5.76-.74,1.46-.74,1.15,0,1.81.72,1.81,1.86v2.69h-.83Z"/><path class="cls-1" d="M205.32,301.1c-.04-.32-.22-.54-.57-.54-.32,0-.52.22-.52.47,0,.38.38.49.82.62.62.19,1.2.57,1.2,1.39s-.62,1.42-1.49,1.42c-.8,0-1.57-.54-1.57-1.57h.83c.04.54.31.81.75.81.38,0,.64-.25.64-.61,0-.3-.23-.5-.75-.67-1.09-.34-1.27-.82-1.27-1.32,0-.78.66-1.3,1.39-1.3s1.33.51,1.36,1.29h-.83Z"/><path class="cls-1" d="M145.73,270.25v-5.92h1.72c1.27,0,2.08.63,2.08,1.79s-.79,1.79-2.07,1.79h-.86v2.33h-.86ZM147.45,267.12c.76,0,1.21-.36,1.21-1s-.47-1-1.22-1h-.85v2h.86Z"/><path class="cls-1" d="M150.67,268.39c.19.74.78,1.21,1.46,1.21.52,0,1.01-.27,1.26-.74h.83c-.34.91-1.18,1.5-2.13,1.5-1.25,0-2.25-1.1-2.25-2.29,0-1.4,1.06-2.37,2.23-2.37,1.3,0,2.29,1.01,2.29,2.28,0,.14,0,.26-.02.42h-3.67ZM153.53,267.75c-.06-.75-.73-1.3-1.44-1.3s-1.36.54-1.42,1.3h2.86Z"/><path class="cls-1" d="M155.29,270.25v-3.67h-.6v-.76h.6v-1.49h.83v1.49h.73v.76h-.73v3.67h-.83Z"/><path class="cls-1" d="M157.41,270.25v-4.43h.78v.4h.02c.2-.3.54-.49,1.13-.52v.86c-.72.02-1.09.46-1.09,1.21v2.49h-.83Z"/><path class="cls-1" d="M163.55,270.25v-.69h-.02c-.31.53-.87.8-1.5.8-1.29,0-2.35-.98-2.35-2.25,0-1.42,1.02-2.41,2.32-2.41.65,0,1.19.24,1.54.74h.02v-.62h.83v4.43h-.83ZM163.56,268.04c0-.86-.62-1.58-1.54-1.58-.83,0-1.51.71-1.51,1.58s.68,1.56,1.51,1.56,1.54-.72,1.54-1.56Z"/><path class="cls-1" d="M168,270.25v-5.92h.86v5.92h-.86ZM171.12,270.25l-2.25-2.98,2.25-2.93h1.06l-2.31,2.93,2.31,2.98h-1.06Z"/><path class="cls-1" d="M173.88,270.25l-1.76-4.43h.89l1.16,3.17h.02l1.13-3.17h.89l-1.74,4.43h-.58Z"/><path class="cls-1" d="M176.85,265.3v-.98h.83v.98h-.83ZM176.85,270.25v-4.43h.83v4.43h-.83Z"/><path class="cls-1" d="M178.89,270.25v-3.67h-.6v-.76h.6v-1.49h.83v1.49h.73v.76h-.73v3.67h-.83Z"/><path class="cls-1" d="M183.14,270.36c-1.25,0-2.36-1.06-2.36-2.31,0-1.35,1.06-2.35,2.42-2.35,1.22,0,2.38.96,2.36,2.37-.02,1.18-1.01,2.29-2.42,2.29ZM183.16,266.46c-.83,0-1.55.7-1.55,1.57s.7,1.58,1.54,1.58,1.58-.69,1.58-1.58-.7-1.56-1.57-1.56Z"/><path class="cls-1" d="M187.58,270.25l-1.76-4.43h.89l1.16,3.17h.02l1.13-3.17h.89l-1.74,4.43h-.58Z"/><path class="cls-1" d="M194.03,270.25v-.69h-.02c-.31.53-.87.8-1.5.8-1.29,0-2.35-.98-2.35-2.25,0-1.42,1.02-2.41,2.32-2.41.65,0,1.19.24,1.54.74h.02v-.62h.83v4.43h-.83ZM194.04,268.04c0-.86-.62-1.58-1.54-1.58-.83,0-1.51.71-1.51,1.58s.68,1.56,1.51,1.56,1.54-.72,1.54-1.56ZM192.05,265.36l-.34-.6,1.78-1.02.35.65-1.8.98Z"/><path class="cls-1" d="M151.23,338.96v-5h-.02l-1.99,5h-.52l-2-5h-.02v5h-.86v-5.92h1.36l1.78,4.53,1.78-4.53h1.36v5.92h-.86Z"/><path class="cls-1" d="M156.86,338.96v-.69h-.02c-.31.53-.87.8-1.5.8-1.29,0-2.35-.98-2.35-2.25,0-1.42,1.02-2.41,2.32-2.41.65,0,1.19.24,1.54.74h.02v-.62h.83v4.43h-.83ZM156.87,336.76c0-.86-.62-1.58-1.54-1.58-.83,0-1.51.71-1.51,1.58s.68,1.56,1.51,1.56,1.54-.72,1.54-1.56Z"/><path class="cls-1" d="M158.76,338.96v-4.43h.78v.4h.02c.2-.3.54-.49,1.13-.52v.86c-.72.02-1.09.46-1.09,1.21v2.49h-.83Z"/><path class="cls-1" d="M161.49,334.02v-.98h.83v.98h-.83ZM161.49,338.96v-4.43h.83v4.43h-.83Z"/><path class="cls-1" d="M165.52,339.08c-1.25,0-2.36-1.06-2.36-2.31,0-1.35,1.06-2.35,2.42-2.35,1.22,0,2.38.96,2.36,2.37-.02,1.18-1.01,2.29-2.42,2.29ZM165.55,335.17c-.83,0-1.55.7-1.55,1.57s.7,1.58,1.54,1.58,1.58-.69,1.58-1.58-.7-1.56-1.57-1.56Z"/><path class="cls-1" d="M171.89,338.96v-2.41c0-.94-.37-1.38-1.1-1.38s-1.17.54-1.17,1.37v2.42h-.83v-4.43h.78v.47h.02c.33-.42.78-.59,1.29-.59,1.06,0,1.85.67,1.85,1.9v2.65h-.83Z"/><path class="cls-1" d="M176.21,338.96v-5.92h1.61c1.09,0,1.77.68,1.77,1.61,0,.5-.14.82-.53,1.15.57.32.88.78.88,1.44,0,1.06-.79,1.72-1.87,1.72h-1.86ZM177.79,335.51c.58,0,.94-.28.94-.83s-.36-.84-.99-.84h-.66v1.67h.71ZM178,338.17c.62,0,1.08-.35,1.08-.93,0-.4-.27-.94-1.05-.94h-.95v1.87h.93Z"/><path class="cls-1" d="M184.43,338.96v-.69h-.02c-.31.53-.87.8-1.5.8-1.29,0-2.35-.98-2.35-2.25,0-1.42,1.02-2.41,2.32-2.41.65,0,1.19.24,1.54.74h.02v-.62h.83v4.43h-.83ZM184.44,336.76c0-.86-.62-1.58-1.54-1.58-.83,0-1.51.71-1.51,1.58s.68,1.56,1.51,1.56,1.54-.72,1.54-1.56Z"/><path class="cls-1" d="M186.33,338.96v-4.43h.78v.4h.02c.2-.3.54-.49,1.13-.52v.86c-.72.02-1.09.46-1.09,1.21v2.49h-.83Z"/><path class="cls-1" d="M189.16,338.96v-3.67h-.6v-.76h.6v-1.49h.83v1.49h.73v.76h-.73v3.67h-.83Z"/><path class="cls-1" d="M193.41,339.08c-1.25,0-2.36-1.06-2.36-2.31,0-1.35,1.06-2.35,2.42-2.35,1.22,0,2.38.96,2.36,2.37-.02,1.18-1.01,2.29-2.42,2.29ZM193.43,335.17c-.83,0-1.55.7-1.55,1.57s.7,1.58,1.54,1.58,1.58-.69,1.58-1.58-.7-1.56-1.57-1.56Z"/><path class="cls-1" d="M196.68,338.96v-5.92h.83v5.92h-.83Z"/><path class="cls-1" d="M198.59,334.02v-.98h.83v.98h-.83ZM198.59,338.96v-4.43h.83v4.43h-.83Z"/><path class="cls-1" d="M149.67,89.19l-.66-1.74h-2.13l-.66,1.74h-.91l2.25-5.92h.78l2.25,5.92h-.92ZM147.96,84.39h-.02l-.76,2.26h1.53l-.75-2.26Z"/><path class="cls-1" d="M157.09,89.19v-2.48c0-.84-.35-1.31-1.05-1.31-.74,0-1.06.41-1.06,1.3v2.49h-.83v-2.57c0-.87-.41-1.22-1.01-1.22-.74,0-1.1.43-1.1,1.3v2.49h-.83v-4.43h.77v.48h.02c.36-.42.7-.6,1.27-.6s1.15.28,1.38.74c.32-.5.76-.74,1.46-.74,1.15,0,1.81.72,1.81,1.86v2.69h-.83Z"/><path class="cls-1" d="M159.6,87.33c.19.74.78,1.21,1.46,1.21.52,0,1.01-.27,1.26-.74h.83c-.34.91-1.18,1.5-2.13,1.5-1.25,0-2.25-1.1-2.25-2.29,0-1.4,1.06-2.37,2.23-2.37,1.3,0,2.29,1.01,2.29,2.28,0,.14,0,.26-.02.42h-3.67ZM162.46,86.69c-.06-.75-.73-1.3-1.44-1.3s-1.36.54-1.42,1.3h2.86ZM160.45,84.3l-.34-.6,1.78-1.02.35.65-1.8.98Z"/><path class="cls-1" d="M164.12,89.19v-5.92h.83v5.92h-.83Z"/><path class="cls-1" d="M166.03,84.25v-.98h.83v.98h-.83ZM166.03,89.19v-4.43h.83v4.43h-.83Z"/><path class="cls-1" d="M168.54,87.33c.19.74.78,1.21,1.46,1.21.52,0,1.01-.27,1.26-.74h.83c-.34.91-1.17,1.5-2.13,1.5-1.25,0-2.25-1.1-2.25-2.29,0-1.4,1.06-2.37,2.23-2.37,1.3,0,2.29,1.01,2.29,2.28,0,.14,0,.26-.02.42h-3.67ZM171.4,86.69c-.06-.75-.73-1.3-1.44-1.3s-1.36.54-1.42,1.3h2.86Z"/><path class="cls-1" d="M180.91,89.19v-5h-.02l-1.99,5h-.52l-2-5h-.02v5h-.86v-5.92h1.36l1.78,4.53,1.78-4.53h1.36v5.92h-.86Z"/><path class="cls-1" d="M186.54,89.19v-.69h-.02c-.31.53-.87.8-1.5.8-1.29,0-2.35-.98-2.35-2.25,0-1.42,1.02-2.41,2.32-2.41.65,0,1.19.24,1.54.74h.02v-.62h.83v4.43h-.83ZM186.55,86.98c0-.86-.62-1.58-1.54-1.58-.83,0-1.51.71-1.51,1.58s.68,1.56,1.51,1.56,1.54-.72,1.54-1.56Z"/><path class="cls-1" d="M191.6,89.19v-.48h-.02c-.22.38-.72.59-1.3.59-.95,0-1.85-.51-1.85-2.07v-2.47h.83v2.41c0,.93.34,1.38,1.1,1.38s1.16-.54,1.16-1.39v-2.39h.83v4.43h-.76Z"/><path class="cls-1" d="M193.44,89.19v-4.43h.78v.4h.02c.2-.3.54-.49,1.13-.52v.86c-.72.02-1.09.46-1.09,1.21v2.49h-.83Z"/><path class="cls-1" d="M196.54,87.33c.19.74.78,1.21,1.46,1.21.52,0,1.01-.27,1.26-.74h.83c-.34.91-1.18,1.5-2.13,1.5-1.25,0-2.25-1.1-2.25-2.29,0-1.4,1.06-2.37,2.23-2.37,1.3,0,2.29,1.01,2.29,2.28,0,.14,0,.26-.02.42h-3.67ZM199.4,86.69c-.06-.75-.73-1.3-1.44-1.3s-1.36.54-1.42,1.3h2.86Z"/><path class="cls-1" d="M202.81,85.94c-.04-.32-.22-.54-.57-.54-.32,0-.52.22-.52.47,0,.38.38.49.82.62.62.19,1.2.57,1.2,1.39s-.62,1.42-1.49,1.42c-.8,0-1.57-.54-1.57-1.57h.83c.04.54.31.81.75.81.38,0,.64-.25.64-.61,0-.3-.23-.5-.75-.67-1.09-.34-1.27-.82-1.27-1.32,0-.78.66-1.3,1.39-1.3s1.33.51,1.36,1.29h-.83Z"/><path class="cls-1" d="M210.33,89.19v-2.48c0-.84-.35-1.31-1.05-1.31-.74,0-1.06.41-1.06,1.3v2.49h-.83v-2.57c0-.87-.41-1.22-1.01-1.22-.74,0-1.1.43-1.1,1.3v2.49h-.83v-4.43h.77v.48h.02c.36-.42.7-.6,1.27-.6s1.15.28,1.38.74c.32-.5.76-.74,1.46-.74,1.15,0,1.81.72,1.81,1.86v2.69h-.83Z"/><path class="cls-1" d="M214.35,89.3c-1.25,0-2.36-1.06-2.36-2.31,0-1.35,1.06-2.35,2.42-2.35,1.22,0,2.38.96,2.36,2.37-.02,1.18-1.01,2.29-2.42,2.29ZM214.38,85.4c-.83,0-1.55.7-1.55,1.57s.7,1.58,1.54,1.58,1.58-.69,1.58-1.58-.7-1.56-1.57-1.56Z"/><path class="cls-1" d="M48.68,197.23l-1.95-2.74h-.02v2.74h-.86v-5.92h1.9c1.42,0,2.05.75,2.05,1.97,0,1.13-.86,1.72-1.7,1.74l1.66,2.21h-1.08ZM47.35,194.37c1.01,0,1.59-.39,1.59-1.16,0-.68-.54-1.1-1.31-1.1h-.91v2.26h.63Z"/><path class="cls-1" d="M52.75,197.34c-1.25,0-2.36-1.06-2.36-2.31,0-1.35,1.06-2.35,2.42-2.35,1.22,0,2.38.96,2.36,2.37-.02,1.18-1.01,2.29-2.42,2.29ZM52.77,193.44c-.83,0-1.55.7-1.55,1.57s.7,1.58,1.54,1.58,1.58-.69,1.58-1.58-.7-1.56-1.57-1.56Z"/><path class="cls-1" d="M59.68,196.65c-.34.46-.9.7-1.53.7-1.27,0-2.37-1.1-2.37-2.29,0-1.34,1.04-2.37,2.38-2.37.58,0,1.18.24,1.54.63v-.51h.83v3.85c0,1.44-.89,2.33-2.39,2.33-1.02,0-1.81-.54-2.19-1.4h.93c.31.44.73.64,1.27.64,1.02,0,1.55-.55,1.55-1.57h-.02ZM59.7,195.02c0-1.04-.79-1.58-1.56-1.58-.82,0-1.52.71-1.52,1.58s.7,1.57,1.53,1.57c.97,0,1.55-.85,1.55-1.57Z"/><path class="cls-1" d="M62.08,195.38c.19.74.78,1.21,1.46,1.21.52,0,1.01-.27,1.26-.74h.83c-.34.91-1.17,1.5-2.13,1.5-1.25,0-2.25-1.1-2.25-2.29,0-1.4,1.06-2.37,2.23-2.37,1.3,0,2.29,1.01,2.29,2.28,0,.14,0,.26-.02.42h-3.67ZM64.95,194.74c-.06-.75-.73-1.3-1.44-1.3s-1.36.54-1.42,1.3h2.86Z"/><path class="cls-1" d="M66.61,197.23v-4.43h.78v.4h.02c.2-.3.54-.49,1.13-.52v.86c-.72.02-1.09.46-1.09,1.21v2.49h-.83Z"/><path class="cls-1" d="M71.51,197.23v-5.92h2.99v.79h-2.13v1.77h2.13v.79h-2.13v2.56h-.86Z"/><path class="cls-1" d="M75.84,195.38c.19.74.78,1.21,1.46,1.21.52,0,1.01-.27,1.26-.74h.83c-.34.91-1.17,1.5-2.13,1.5-1.25,0-2.25-1.1-2.25-2.29,0-1.4,1.06-2.37,2.23-2.37,1.3,0,2.29,1.01,2.29,2.28,0,.14,0,.26-.02.42h-3.67ZM78.7,194.74c-.06-.75-.73-1.3-1.44-1.3s-1.36.54-1.42,1.3h2.86Z"/><path class="cls-1" d="M84.02,197.23v-.63h-.02c-.34.48-.92.74-1.57.74-1.29,0-2.3-.98-2.3-2.28s.96-2.38,2.28-2.38c.6,0,1.17.22,1.53.66h.02v-2.03h.83v5.92h-.77ZM82.47,193.44c-.85,0-1.51.71-1.51,1.58s.68,1.56,1.51,1.56,1.54-.69,1.54-1.53c0-.9-.61-1.62-1.54-1.62Z"/><path class="cls-1" d="M86.47,195.38c.19.74.78,1.21,1.46,1.21.52,0,1.01-.27,1.26-.74h.83c-.34.91-1.18,1.5-2.13,1.5-1.25,0-2.25-1.1-2.25-2.29,0-1.4,1.06-2.37,2.23-2.37,1.3,0,2.29,1.01,2.29,2.28,0,.14,0,.26-.02.42h-3.67ZM89.33,194.74c-.06-.75-.73-1.3-1.44-1.3s-1.36.54-1.42,1.3h2.86Z"/><path class="cls-1" d="M91,197.23v-4.43h.78v.4h.02c.2-.3.54-.49,1.13-.52v.86c-.72.02-1.09.46-1.09,1.21v2.49h-.83Z"/><path class="cls-1" d="M94.1,195.38c.19.74.78,1.21,1.46,1.21.52,0,1.01-.27,1.26-.74h.83c-.34.91-1.17,1.5-2.13,1.5-1.25,0-2.25-1.1-2.25-2.29,0-1.4,1.06-2.37,2.23-2.37,1.3,0,2.29,1.01,2.29,2.28,0,.14,0,.26-.02.42h-3.67ZM96.96,194.74c-.06-.75-.73-1.3-1.44-1.3s-1.36.54-1.42,1.3h2.86Z"/><path class="cls-1" d="M98.63,197.23v-4.43h.78v.4h.02c.2-.3.54-.49,1.13-.52v.86c-.72.02-1.09.46-1.09,1.21v2.49h-.83Z"/><path class="cls-1" d="M48.68,304.36l-1.95-2.74h-.02v2.74h-.86v-5.92h1.9c1.42,0,2.05.75,2.05,1.97,0,1.13-.86,1.72-1.7,1.74l1.66,2.21h-1.08ZM47.35,301.5c1.01,0,1.59-.39,1.59-1.16,0-.68-.54-1.1-1.31-1.1h-.91v2.26h.63Z"/><path class="cls-1" d="M52.75,304.47c-1.25,0-2.36-1.06-2.36-2.31,0-1.35,1.06-2.35,2.42-2.35,1.22,0,2.38.96,2.36,2.37-.02,1.18-1.01,2.29-2.42,2.29ZM52.77,300.57c-.83,0-1.55.7-1.55,1.57s.7,1.58,1.54,1.58,1.58-.69,1.58-1.58-.7-1.56-1.57-1.56Z"/><path class="cls-1" d="M59.68,303.77c-.34.46-.9.7-1.53.7-1.27,0-2.37-1.1-2.37-2.29,0-1.34,1.04-2.37,2.38-2.37.58,0,1.18.24,1.54.63v-.51h.83v3.85c0,1.44-.89,2.33-2.39,2.33-1.02,0-1.81-.54-2.19-1.4h.93c.31.44.73.64,1.27.64,1.02,0,1.55-.55,1.55-1.57h-.02ZM59.7,302.14c0-1.04-.79-1.58-1.56-1.58-.82,0-1.52.71-1.52,1.58s.7,1.57,1.53,1.57c.97,0,1.55-.85,1.55-1.57Z"/><path class="cls-1" d="M62.08,302.5c.19.74.78,1.21,1.46,1.21.52,0,1.01-.27,1.26-.74h.83c-.34.91-1.17,1.5-2.13,1.5-1.25,0-2.25-1.1-2.25-2.29,0-1.4,1.06-2.37,2.23-2.37,1.3,0,2.29,1.01,2.29,2.28,0,.14,0,.26-.02.42h-3.67ZM64.95,301.86c-.06-.75-.73-1.3-1.44-1.3s-1.36.54-1.42,1.3h2.86Z"/><path class="cls-1" d="M66.61,304.36v-4.43h.78v.4h.02c.2-.3.54-.49,1.13-.52v.86c-.72.02-1.09.46-1.09,1.21v2.49h-.83Z"/><path class="cls-1" d="M71.51,304.36v-5.92h2.99v.79h-2.13v1.77h2.13v.79h-2.13v2.56h-.86Z"/><path class="cls-1" d="M75.84,302.5c.19.74.78,1.21,1.46,1.21.52,0,1.01-.27,1.26-.74h.83c-.34.91-1.17,1.5-2.13,1.5-1.25,0-2.25-1.1-2.25-2.29,0-1.4,1.06-2.37,2.23-2.37,1.3,0,2.29,1.01,2.29,2.28,0,.14,0,.26-.02.42h-3.67ZM78.7,301.86c-.06-.75-.73-1.3-1.44-1.3s-1.36.54-1.42,1.3h2.86Z"/><path class="cls-1" d="M84.02,304.36v-.63h-.02c-.34.48-.92.74-1.57.74-1.29,0-2.3-.98-2.3-2.28s.96-2.38,2.28-2.38c.6,0,1.17.22,1.53.66h.02v-2.03h.83v5.92h-.77ZM82.47,300.57c-.85,0-1.51.71-1.51,1.58s.68,1.56,1.51,1.56,1.54-.69,1.54-1.53c0-.9-.61-1.62-1.54-1.62Z"/><path class="cls-1" d="M86.47,302.5c.19.74.78,1.21,1.46,1.21.52,0,1.01-.27,1.26-.74h.83c-.34.91-1.18,1.5-2.13,1.5-1.25,0-2.25-1.1-2.25-2.29,0-1.4,1.06-2.37,2.23-2.37,1.3,0,2.29,1.01,2.29,2.28,0,.14,0,.26-.02.42h-3.67ZM89.33,301.86c-.06-.75-.73-1.3-1.44-1.3s-1.36.54-1.42,1.3h2.86Z"/><path class="cls-1" d="M91,304.36v-4.43h.78v.4h.02c.2-.3.54-.49,1.13-.52v.86c-.72.02-1.09.46-1.09,1.21v2.49h-.83Z"/><path class="cls-1" d="M94.1,302.5c.19.74.78,1.21,1.46,1.21.52,0,1.01-.27,1.26-.74h.83c-.34.91-1.17,1.5-2.13,1.5-1.25,0-2.25-1.1-2.25-2.29,0-1.4,1.06-2.37,2.23-2.37,1.3,0,2.29,1.01,2.29,2.28,0,.14,0,.26-.02.42h-3.67ZM96.96,301.86c-.06-.75-.73-1.3-1.44-1.3s-1.36.54-1.42,1.3h2.86Z"/><path class="cls-1" d="M98.63,304.36v-4.43h.78v.4h.02c.2-.3.54-.49,1.13-.52v.86c-.72.02-1.09.46-1.09,1.21v2.49h-.83Z"/><path class="cls-1" d="M49.74,270.25l-2.93-4.57h-.02v4.57h-.86v-5.92h.94l2.88,4.5h.02v-4.5h.86v5.92h-.9Z"/><path class="cls-1" d="M53.9,270.36c-1.25,0-2.36-1.06-2.36-2.31,0-1.35,1.06-2.35,2.42-2.35,1.22,0,2.38.96,2.36,2.37-.02,1.18-1.01,2.29-2.42,2.29ZM53.92,266.46c-.83,0-1.55.7-1.55,1.57s.7,1.58,1.54,1.58,1.58-.69,1.58-1.58-.7-1.56-1.57-1.56Z"/><path class="cls-1" d="M58.34,270.25l-1.76-4.43h.89l1.16,3.17h.02l1.13-3.17h.89l-1.74,4.43h-.58Z"/><path class="cls-1" d="M64.79,270.25v-.69h-.02c-.31.53-.87.8-1.5.8-1.29,0-2.35-.98-2.35-2.25,0-1.42,1.02-2.41,2.32-2.41.65,0,1.19.24,1.54.74h.02v-.62h.83v4.43h-.83ZM64.8,268.04c0-.86-.62-1.58-1.54-1.58-.83,0-1.51.71-1.51,1.58s.68,1.56,1.51,1.56,1.54-.72,1.54-1.56Z"/><path class="cls-1" d="M66.81,270.25v-5.92h.83v5.92h-.83ZM69.43,270.25l-1.78-2.29,1.58-2.13h.98l-1.61,2.09,1.86,2.34h-1.04Z"/><path class="cls-1" d="M73.44,270.25v-5.92h2.05c1.79,0,2.89,1.42,2.89,2.96,0,1.81-1.14,2.96-3.01,2.96h-1.93ZM75.34,269.45c1.37,0,2.18-.8,2.18-2.15s-.94-2.18-2.14-2.18h-1.07v4.33h1.03Z"/><path class="cls-1" d="M78.87,271.12c.33-.03.55-.13.55-.81v-4.49h.83v4.72c0,.96-.84,1.46-1.38,1.46v-.87ZM79.42,265.3v-.98h.83v.98h-.83Z"/><path class="cls-1" d="M83.43,270.36c-1.25,0-2.36-1.06-2.36-2.31,0-1.35,1.06-2.35,2.42-2.35,1.22,0,2.38.96,2.36,2.37-.02,1.18-1.01,2.29-2.42,2.29ZM83.46,266.46c-.83,0-1.55.7-1.55,1.57s.7,1.58,1.54,1.58,1.58-.69,1.58-1.58-.7-1.56-1.57-1.56Z"/><path class="cls-1" d="M86.79,270.25v-5.92h.83v5.92h-.83ZM89.41,270.25l-1.78-2.29,1.58-2.13h.98l-1.61,2.09,1.86,2.34h-1.04Z"/><path class="cls-1" d="M92.84,270.36c-1.25,0-2.36-1.06-2.36-2.31,0-1.35,1.06-2.35,2.42-2.35,1.22,0,2.38.96,2.36,2.37-.02,1.18-1.01,2.29-2.42,2.29ZM92.87,266.46c-.83,0-1.55.7-1.55,1.57s.7,1.58,1.54,1.58,1.58-.69,1.58-1.58-.7-1.56-1.57-1.56Z"/><path class="cls-1" d="M97.28,270.25l-1.76-4.43h.89l1.16,3.17h.02l1.13-3.17h.89l-1.74,4.43h-.58Z"/><path class="cls-1" d="M100.25,265.3v-.98h.83v.98h-.83ZM100.25,270.25v-4.43h.83v4.43h-.83Z"/><path class="cls-1" d="M106.38,268.78c-.35,1-1.2,1.58-2.18,1.58-1.27,0-2.27-1.02-2.27-2.29,0-1.34.97-2.37,2.26-2.37,1.01,0,1.93.63,2.19,1.59h-.92c-.25-.52-.65-.83-1.25-.83-.87,0-1.46.66-1.46,1.57s.6,1.58,1.44,1.58c.57,0,1.02-.3,1.26-.82h.93Z"/><path class="cls-1" d="M49.79,338.96l-.66-1.74h-2.13l-.66,1.74h-.91l2.25-5.92h.78l2.25,5.92h-.92ZM48.08,334.17h-.02l-.76,2.26h1.53l-.75-2.26Z"/><path class="cls-1" d="M54.43,338.96v-2.41c0-.94-.37-1.38-1.1-1.38s-1.17.54-1.17,1.37v2.42h-.83v-4.43h.78v.47h.02c.33-.42.78-.59,1.29-.59,1.06,0,1.85.67,1.85,1.9v2.65h-.83Z"/><path class="cls-1" d="M59.99,338.96v-.63h-.02c-.34.48-.92.74-1.57.74-1.29,0-2.3-.98-2.3-2.28s.96-2.38,2.28-2.38c.6,0,1.17.22,1.53.66h.02v-2.03h.83v5.92h-.77ZM58.44,335.17c-.85,0-1.51.71-1.51,1.58s.68,1.56,1.51,1.56,1.54-.69,1.54-1.53c0-.9-.61-1.62-1.54-1.62Z"/><path class="cls-1" d="M62.49,340.44l.65-1.57-1.77-4.34h.9l1.3,3.44,1.34-3.44h.9l-2.45,5.91h-.86Z"/><path class="cls-1" d="M74.26,338.96v-5h-.02l-1.99,5h-.52l-2-5h-.02v5h-.86v-5.92h1.36l1.78,4.53,1.78-4.53h1.36v5.92h-.86Z"/><path class="cls-1" d="M79.41,338.96v-.48h-.02c-.22.38-.72.59-1.3.59-.95,0-1.85-.51-1.85-2.07v-2.47h.83v2.41c0,.93.34,1.38,1.1,1.38s1.16-.54,1.16-1.39v-2.39h.83v4.43h-.76Z"/><path class="cls-1" d="M81.24,338.96v-4.43h.78v.4h.02c.2-.3.54-.49,1.13-.52v.86c-.72.02-1.09.46-1.09,1.21v2.49h-.83Z"/><path class="cls-1" d="M83.97,338.96v-4.43h.78v.4h.02c.2-.3.54-.49,1.13-.52v.86c-.72.02-1.09.46-1.09,1.21v2.49h-.83Z"/><path class="cls-1" d="M90.1,338.96v-.69h-.02c-.31.53-.87.8-1.5.8-1.29,0-2.35-.98-2.35-2.25,0-1.42,1.02-2.41,2.32-2.41.65,0,1.19.24,1.54.74h.02v-.62h.83v4.43h-.83ZM90.12,336.76c0-.86-.62-1.58-1.54-1.58-.83,0-1.51.71-1.51,1.58s.68,1.56,1.51,1.56,1.54-.72,1.54-1.56Z"/><path class="cls-1" d="M92.68,340.44l.65-1.57-1.77-4.34h.9l1.3,3.44,1.34-3.44h.9l-2.45,5.91h-.86Z"/><path class="cls-1" d="M48.78,157.87l-1.95-2.74h-.02v2.74h-.86v-5.92h1.9c1.42,0,2.05.75,2.05,1.97,0,1.13-.86,1.72-1.7,1.74l1.66,2.21h-1.08ZM47.44,155c1.01,0,1.59-.39,1.59-1.16,0-.68-.54-1.1-1.31-1.1h-.91v2.26h.63Z"/><path class="cls-1" d="M54.35,157.87v-.69h-.02c-.31.53-.87.8-1.5.8-1.29,0-2.35-.98-2.35-2.25,0-1.42,1.02-2.41,2.32-2.41.65,0,1.19.24,1.54.74h.02v-.62h.83v4.43h-.83ZM54.37,155.66c0-.86-.62-1.58-1.54-1.58-.83,0-1.51.71-1.51,1.58s.68,1.56,1.51,1.56,1.54-.72,1.54-1.56Z"/><path class="cls-1" d="M56.28,157.87v-3.67h-.39v-.76h.39v-.2c0-.85.6-1.29,1.42-1.29h.18v.76c-.54,0-.78.19-.78.52v.21h.78v.76h-.78v3.67h-.83Z"/><path class="cls-1" d="M61.95,157.87v-.69h-.02c-.31.53-.87.8-1.5.8-1.29,0-2.35-.98-2.35-2.25,0-1.42,1.02-2.41,2.32-2.41.65,0,1.19.24,1.54.74h.02v-.62h.83v4.43h-.83ZM61.97,155.66c0-.86-.62-1.58-1.54-1.58-.83,0-1.51.71-1.51,1.58s.68,1.56,1.51,1.56,1.54-.72,1.54-1.56Z"/><path class="cls-1" d="M64.46,156.01c.19.74.78,1.21,1.46,1.21.52,0,1.01-.27,1.26-.74h.83c-.34.91-1.18,1.5-2.13,1.5-1.25,0-2.25-1.1-2.25-2.29,0-1.4,1.06-2.37,2.23-2.37,1.3,0,2.29,1.01,2.29,2.28,0,.14,0,.26-.02.42h-3.67ZM67.33,155.37c-.06-.75-.73-1.3-1.44-1.3s-1.36.54-1.42,1.3h2.86Z"/><path class="cls-1" d="M68.99,157.87v-5.92h.83v5.92h-.83Z"/><path class="cls-1" d="M77.13,157.87l-2.93-4.57h-.02v4.57h-.86v-5.92h.94l2.88,4.5h.02v-4.5h.86v5.92h-.9Z"/><path class="cls-1" d="M82.8,157.87v-.69h-.02c-.31.53-.87.8-1.5.8-1.29,0-2.35-.98-2.35-2.25,0-1.42,1.02-2.41,2.32-2.41.65,0,1.19.24,1.54.74h.02v-.62h.83v4.43h-.83ZM82.81,155.66c0-.86-.62-1.58-1.54-1.58-.83,0-1.51.71-1.51,1.58s.68,1.56,1.51,1.56,1.54-.72,1.54-1.56Z"/><path class="cls-1" d="M88.36,157.87v-.63h-.02c-.34.48-.92.74-1.57.74-1.29,0-2.3-.98-2.3-2.28s.96-2.38,2.28-2.38c.6,0,1.17.22,1.53.66h.02v-2.03h.83v5.92h-.77ZM86.82,154.08c-.85,0-1.51.71-1.51,1.58s.68,1.56,1.51,1.56,1.54-.69,1.54-1.53c0-.9-.61-1.62-1.54-1.62Z"/><path class="cls-1" d="M93.84,157.87v-.69h-.02c-.31.53-.87.8-1.5.8-1.29,0-2.35-.98-2.35-2.25,0-1.42,1.02-2.41,2.32-2.41.65,0,1.19.24,1.54.74h.02v-.62h.83v4.43h-.83ZM93.85,155.66c0-.86-.62-1.58-1.54-1.58-.83,0-1.51.71-1.51,1.58s.68,1.56,1.51,1.56,1.54-.72,1.54-1.56Z"/><path class="cls-1" d="M95.79,157.87v-5.92h.83v5.92h-.83Z"/><path class="cls-1" d="M48.78,236.63l-1.95-2.74h-.02v2.74h-.86v-5.92h1.9c1.42,0,2.05.75,2.05,1.97,0,1.13-.86,1.72-1.7,1.74l1.66,2.21h-1.08ZM47.44,233.77c1.01,0,1.59-.39,1.59-1.16,0-.68-.54-1.1-1.31-1.1h-.91v2.26h.63Z"/><path class="cls-1" d="M54.35,236.63v-.69h-.02c-.31.53-.87.8-1.5.8-1.29,0-2.35-.98-2.35-2.25,0-1.42,1.02-2.41,2.32-2.41.65,0,1.19.24,1.54.74h.02v-.62h.83v4.43h-.83ZM54.37,234.42c0-.86-.62-1.58-1.54-1.58-.83,0-1.51.71-1.51,1.58s.68,1.56,1.51,1.56,1.54-.72,1.54-1.56Z"/><path class="cls-1" d="M56.28,236.63v-3.67h-.39v-.76h.39v-.2c0-.85.6-1.29,1.42-1.29h.18v.76c-.54,0-.78.19-.78.52v.21h.78v.76h-.78v3.67h-.83Z"/><path class="cls-1" d="M61.95,236.63v-.69h-.02c-.31.53-.87.8-1.5.8-1.29,0-2.35-.98-2.35-2.25,0-1.42,1.02-2.41,2.32-2.41.65,0,1.19.24,1.54.74h.02v-.62h.83v4.43h-.83ZM61.97,234.42c0-.86-.62-1.58-1.54-1.58-.83,0-1.51.71-1.51,1.58s.68,1.56,1.51,1.56,1.54-.72,1.54-1.56Z"/><path class="cls-1" d="M64.46,234.77c.19.74.78,1.21,1.46,1.21.52,0,1.01-.27,1.26-.74h.83c-.34.91-1.18,1.5-2.13,1.5-1.25,0-2.25-1.1-2.25-2.29,0-1.4,1.06-2.37,2.23-2.37,1.3,0,2.29,1.01,2.29,2.28,0,.14,0,.26-.02.42h-3.67ZM67.33,234.13c-.06-.75-.73-1.3-1.44-1.3s-1.36.54-1.42,1.3h2.86Z"/><path class="cls-1" d="M68.99,236.63v-5.92h.83v5.92h-.83Z"/><path class="cls-1" d="M77.13,236.63l-2.93-4.57h-.02v4.57h-.86v-5.92h.94l2.88,4.5h.02v-4.5h.86v5.92h-.9Z"/><path class="cls-1" d="M82.8,236.63v-.69h-.02c-.31.53-.87.8-1.5.8-1.29,0-2.35-.98-2.35-2.25,0-1.42,1.02-2.41,2.32-2.41.65,0,1.19.24,1.54.74h.02v-.62h.83v4.43h-.83ZM82.81,234.42c0-.86-.62-1.58-1.54-1.58-.83,0-1.51.71-1.51,1.58s.68,1.56,1.51,1.56,1.54-.72,1.54-1.56Z"/><path class="cls-1" d="M88.36,236.63v-.63h-.02c-.34.48-.92.74-1.57.74-1.29,0-2.3-.98-2.3-2.28s.96-2.38,2.28-2.38c.6,0,1.17.22,1.53.66h.02v-2.03h.83v5.92h-.77ZM86.82,232.84c-.85,0-1.51.71-1.51,1.58s.68,1.56,1.51,1.56,1.54-.69,1.54-1.53c0-.9-.61-1.62-1.54-1.62Z"/><path class="cls-1" d="M93.84,236.63v-.69h-.02c-.31.53-.87.8-1.5.8-1.29,0-2.35-.98-2.35-2.25,0-1.42,1.02-2.41,2.32-2.41.65,0,1.19.24,1.54.74h.02v-.62h.83v4.43h-.83ZM93.85,234.42c0-.86-.62-1.58-1.54-1.58-.83,0-1.51.71-1.51,1.58s.68,1.56,1.51,1.56,1.54-.72,1.54-1.56Z"/><path class="cls-1" d="M95.79,236.63v-5.92h.83v5.92h-.83Z"/><path class="cls-4" d="M4.39,54.85v-.7l2.37-2.41c.48-.49.5-.84.5-1.04,0-.61-.42-1.13-1.02-1.13-.63,0-1.05.5-1.05,1.27v.11h-.83v-.1c0-1.34.94-2.04,1.86-2.04,1.05,0,1.86.86,1.86,1.91,0,.58-.18,1-.83,1.67l-1.64,1.69h2.48v.76h-3.7Z"/><path class="cls-4" d="M12.64,53.07c0,1.3-1.08,1.9-1.93,1.9s-1.9-.65-1.9-1.97v-2.2c0-1.25.95-1.97,1.93-1.97,1.08,0,1.9.87,1.9,1.92v2.33ZM11.8,50.73c0-.59-.33-1.16-1.08-1.16-.7,0-1.09.53-1.09,1.16v2.21c0,.68.36,1.26,1.09,1.26.53,0,1.08-.42,1.08-1.1v-2.37Z"/><path class="cls-4" d="M17.08,53.07c0,1.3-1.08,1.9-1.93,1.9s-1.9-.65-1.9-1.97v-2.2c0-1.25.95-1.97,1.93-1.97,1.08,0,1.9.87,1.9,1.92v2.33ZM16.24,50.73c0-.59-.33-1.16-1.08-1.16-.7,0-1.09.53-1.09,1.16v2.21c0,.68.36,1.26,1.09,1.26.53,0,1.08-.42,1.08-1.1v-2.37Z"/><path class="cls-4" d="M19.04,49.69l-.22,1.31c.26-.18.51-.24.82-.24,1.17,0,1.98.92,1.98,2.04,0,1.2-.82,2.16-2.02,2.16-1.08,0-1.88-.74-2.01-1.9h.83c.16.76.61,1.14,1.19,1.14.65,0,1.18-.6,1.18-1.3,0-.74-.46-1.38-1.15-1.38-.48,0-.82.21-1.06.62l-.72-.17.5-3.04h2.7v.76h-2.01Z"/><path class="cls-4" d="M4.39,89.19v-.7l2.37-2.41c.48-.49.5-.84.5-1.04,0-.61-.42-1.13-1.02-1.13-.63,0-1.05.5-1.05,1.27v.11h-.83v-.1c0-1.34.94-2.04,1.86-2.04,1.05,0,1.86.86,1.86,1.91,0,.58-.18,1-.83,1.67l-1.64,1.69h2.48v.76h-3.7Z"/><path class="cls-4" d="M12.64,87.41c0,1.3-1.08,1.9-1.93,1.9s-1.9-.65-1.9-1.97v-2.2c0-1.25.95-1.97,1.93-1.97,1.08,0,1.9.87,1.9,1.92v2.33ZM11.8,85.07c0-.59-.33-1.16-1.08-1.16-.7,0-1.09.53-1.09,1.16v2.21c0,.68.36,1.26,1.09,1.26.53,0,1.08-.42,1.08-1.1v-2.37Z"/><path class="cls-4" d="M17.08,87.41c0,1.3-1.08,1.9-1.93,1.9s-1.9-.65-1.9-1.97v-2.2c0-1.25.95-1.97,1.93-1.97,1.08,0,1.9.87,1.9,1.92v2.33ZM16.24,85.07c0-.59-.33-1.16-1.08-1.16-.7,0-1.09.53-1.09,1.16v2.21c0,.68.36,1.26,1.09,1.26.53,0,1.08-.42,1.08-1.1v-2.37Z"/><path class="cls-4" d="M19.42,85.22c.14-.03.23-.04.35-.04,1.08,0,1.9.89,1.9,2s-.86,2.13-2.04,2.13c-1.33,0-2.05-1.13-2.05-2.05,0-.46.14-.91.46-1.41l1.65-2.57h.98l-1.25,1.94ZM20.84,87.26c0-.68-.46-1.33-1.19-1.33-.69,0-1.24.58-1.24,1.27s.5,1.34,1.22,1.34c.69,0,1.21-.61,1.21-1.28Z"/><path class="cls-4" d="M4.39,123.53v-.7l2.37-2.41c.48-.49.5-.84.5-1.04,0-.61-.42-1.13-1.02-1.13-.63,0-1.05.5-1.05,1.27v.11h-.83v-.1c0-1.34.94-2.04,1.86-2.04,1.05,0,1.86.86,1.86,1.91,0,.58-.18,1-.83,1.67l-1.64,1.69h2.48v.76h-3.7Z"/><path class="cls-4" d="M12.64,121.74c0,1.3-1.08,1.9-1.93,1.9s-1.9-.65-1.9-1.97v-2.2c0-1.25.95-1.97,1.93-1.97,1.08,0,1.9.87,1.9,1.92v2.33ZM11.8,119.41c0-.59-.33-1.16-1.08-1.16-.7,0-1.09.53-1.09,1.16v2.21c0,.68.36,1.26,1.09,1.26.53,0,1.08-.42,1.08-1.1v-2.37Z"/><path class="cls-4" d="M17.08,121.74c0,1.3-1.08,1.9-1.93,1.9s-1.9-.65-1.9-1.97v-2.2c0-1.25.95-1.97,1.93-1.97,1.08,0,1.9.87,1.9,1.92v2.33ZM16.24,119.41c0-.59-.33-1.16-1.08-1.16-.7,0-1.09.53-1.09,1.16v2.21c0,.68.36,1.26,1.09,1.26.53,0,1.08-.42,1.08-1.1v-2.37Z"/><path class="cls-4" d="M18.29,123.53l2.23-5.16h-2.57v-.76h3.43v.76l-2.17,5.16h-.93Z"/><path class="cls-4" d="M4.39,157.89v-.7l2.37-2.41c.48-.49.5-.84.5-1.04,0-.61-.42-1.13-1.02-1.13-.63,0-1.05.5-1.05,1.27v.11h-.83v-.1c0-1.34.94-2.04,1.86-2.04,1.05,0,1.86.86,1.86,1.91,0,.58-.18,1-.83,1.67l-1.64,1.69h2.48v.76h-3.7Z"/><path class="cls-4" d="M12.64,156.11c0,1.3-1.08,1.9-1.93,1.9s-1.9-.65-1.9-1.97v-2.2c0-1.25.95-1.97,1.93-1.97,1.08,0,1.9.87,1.9,1.92v2.33ZM11.8,153.78c0-.59-.33-1.16-1.08-1.16-.7,0-1.09.53-1.09,1.16v2.21c0,.68.36,1.26,1.09,1.26.53,0,1.08-.42,1.08-1.1v-2.37Z"/><path class="cls-4" d="M17.08,156.11c0,1.3-1.08,1.9-1.93,1.9s-1.9-.65-1.9-1.97v-2.2c0-1.25.95-1.97,1.93-1.97,1.08,0,1.9.87,1.9,1.92v2.33ZM16.24,153.78c0-.59-.33-1.16-1.08-1.16-.7,0-1.09.53-1.09,1.16v2.21c0,.68.36,1.26,1.09,1.26.53,0,1.08-.42,1.08-1.1v-2.37Z"/><path class="cls-4" d="M21.47,156.13c0,.99-.8,1.88-1.86,1.88s-1.89-.85-1.89-1.81c0-.69.24-1.15.78-1.56-.38-.38-.5-.69-.5-1.14,0-.88.71-1.63,1.62-1.63s1.59.75,1.59,1.61c0,.55-.15.84-.53,1.16.51.34.79.88.79,1.5ZM20.64,156.2c0-.59-.46-1.1-1.05-1.1-.56,0-1.03.51-1.03,1.1s.48,1.06,1.03,1.06,1.05-.49,1.05-1.05ZM20.37,153.41c0-.42-.33-.78-.78-.78-.42,0-.77.38-.77.82s.33.81.77.81.78-.35.78-.84Z"/><path class="cls-4" d="M4.39,197.23v-.7l2.37-2.41c.48-.49.5-.84.5-1.04,0-.61-.42-1.13-1.02-1.13-.63,0-1.05.5-1.05,1.27v.11h-.83v-.1c0-1.34.94-2.04,1.86-2.04,1.05,0,1.86.86,1.86,1.91,0,.58-.18,1-.83,1.67l-1.64,1.69h2.48v.76h-3.7Z"/><path class="cls-4" d="M12.64,195.45c0,1.3-1.08,1.9-1.93,1.9s-1.9-.65-1.9-1.97v-2.2c0-1.25.95-1.97,1.93-1.97,1.08,0,1.9.87,1.9,1.92v2.33ZM11.8,193.11c0-.59-.33-1.16-1.08-1.16-.7,0-1.09.53-1.09,1.16v2.21c0,.68.36,1.26,1.09,1.26.53,0,1.08-.42,1.08-1.1v-2.37Z"/><path class="cls-4" d="M17.08,195.45c0,1.3-1.08,1.9-1.93,1.9s-1.9-.65-1.9-1.97v-2.2c0-1.25.95-1.97,1.93-1.97,1.08,0,1.9.87,1.9,1.92v2.33ZM16.24,193.11c0-.59-.33-1.16-1.08-1.16-.7,0-1.09.53-1.09,1.16v2.21c0,.68.36,1.26,1.09,1.26.53,0,1.08-.42,1.08-1.1v-2.37Z"/><path class="cls-4" d="M18.53,197.23l1.25-1.94c-.22.03-.26.03-.35.03-1.09,0-1.9-.91-1.9-2,0-1.18.9-2.12,2.03-2.12,1.3,0,2.05,1.1,2.05,2.02,0,.46-.13.9-.5,1.49l-1.6,2.53h-.98ZM20.78,193.3c0-.72-.5-1.33-1.22-1.33-.67,0-1.2.6-1.2,1.28s.52,1.32,1.2,1.32,1.22-.59,1.22-1.26Z"/><path class="cls-4" d="M4.39,236.63v-.7l2.37-2.41c.48-.49.5-.84.5-1.04,0-.61-.42-1.13-1.02-1.13-.63,0-1.05.5-1.05,1.27v.11h-.83v-.1c0-1.34.94-2.04,1.86-2.04,1.05,0,1.86.86,1.86,1.91,0,.58-.18,1-.83,1.67l-1.64,1.69h2.48v.76h-3.7Z"/><path class="cls-4" d="M12.64,234.85c0,1.3-1.08,1.9-1.93,1.9s-1.9-.65-1.9-1.97v-2.2c0-1.25.95-1.97,1.93-1.97,1.08,0,1.9.87,1.9,1.92v2.33ZM11.8,232.51c0-.59-.33-1.16-1.08-1.16-.7,0-1.09.53-1.09,1.16v2.21c0,.68.36,1.26,1.09,1.26.53,0,1.08-.42,1.08-1.1v-2.37Z"/><path class="cls-4" d="M15,236.63v-5.16h-.87v-.76h1.7v5.92h-.83Z"/><path class="cls-4" d="M21.52,234.85c0,1.3-1.08,1.9-1.93,1.9s-1.9-.65-1.9-1.97v-2.2c0-1.25.95-1.97,1.93-1.97,1.08,0,1.9.87,1.9,1.92v2.33ZM20.68,232.51c0-.59-.33-1.16-1.08-1.16-.7,0-1.09.53-1.09,1.16v2.21c0,.68.36,1.26,1.09,1.26.53,0,1.08-.42,1.08-1.1v-2.37Z"/><path class="cls-4" d="M4.39,270.25v-.7l2.37-2.41c.48-.49.5-.84.5-1.04,0-.61-.42-1.13-1.02-1.13-.63,0-1.05.5-1.05,1.27v.11h-.83v-.1c0-1.34.94-2.04,1.86-2.04,1.05,0,1.86.86,1.86,1.91,0,.58-.18,1-.83,1.67l-1.64,1.69h2.48v.76h-3.7Z"/><path class="cls-4" d="M12.64,268.46c0,1.3-1.08,1.9-1.93,1.9s-1.9-.65-1.9-1.97v-2.2c0-1.25.95-1.97,1.93-1.97,1.08,0,1.9.87,1.9,1.92v2.33ZM11.8,266.13c0-.59-.33-1.16-1.08-1.16-.7,0-1.09.53-1.09,1.16v2.21c0,.68.36,1.26,1.09,1.26.53,0,1.08-.42,1.08-1.1v-2.37Z"/><path class="cls-4" d="M15,270.25v-5.16h-.87v-.76h1.7v5.92h-.83Z"/><path class="cls-4" d="M19.44,270.25v-5.16h-.87v-.76h1.7v5.92h-.83Z"/><path class="cls-4" d="M4.39,304.36v-.7l2.37-2.41c.48-.49.5-.84.5-1.04,0-.61-.42-1.13-1.02-1.13-.63,0-1.05.5-1.05,1.27v.11h-.83v-.1c0-1.34.94-2.04,1.86-2.04,1.05,0,1.86.86,1.86,1.91,0,.58-.18,1-.83,1.67l-1.64,1.69h2.48v.76h-3.7Z"/><path class="cls-4" d="M12.64,302.57c0,1.3-1.08,1.9-1.93,1.9s-1.9-.65-1.9-1.97v-2.2c0-1.25.95-1.97,1.93-1.97,1.08,0,1.9.87,1.9,1.92v2.33ZM11.8,300.24c0-.59-.33-1.16-1.08-1.16-.7,0-1.09.53-1.09,1.16v2.21c0,.68.36,1.26,1.09,1.26.53,0,1.08-.42,1.08-1.1v-2.37Z"/><path class="cls-4" d="M15,304.36v-5.16h-.87v-.76h1.7v5.92h-.83Z"/><path class="cls-4" d="M17.71,304.36v-.7l2.37-2.41c.48-.49.5-.84.5-1.04,0-.61-.42-1.13-1.02-1.13-.63,0-1.05.5-1.05,1.27v.11h-.83v-.1c0-1.34.94-2.04,1.86-2.04,1.05,0,1.86.86,1.86,1.91,0,.58-.18,1-.83,1.67l-1.64,1.69h2.48v.76h-3.7Z"/><path class="cls-4" d="M4.39,338.96v-.7l2.37-2.41c.48-.49.5-.84.5-1.04,0-.61-.42-1.13-1.02-1.13-.63,0-1.05.5-1.05,1.27v.11h-.83v-.1c0-1.34.94-2.04,1.86-2.04,1.05,0,1.86.86,1.86,1.91,0,.58-.18,1-.83,1.67l-1.64,1.69h2.48v.76h-3.7Z"/><path class="cls-4" d="M12.64,337.18c0,1.3-1.08,1.9-1.93,1.9s-1.9-.65-1.9-1.97v-2.2c0-1.25.95-1.97,1.93-1.97,1.08,0,1.9.87,1.9,1.92v2.33ZM11.8,334.85c0-.59-.33-1.16-1.08-1.16-.7,0-1.09.53-1.09,1.16v2.21c0,.68.36,1.26,1.09,1.26.53,0,1.08-.42,1.08-1.1v-2.37Z"/><path class="cls-4" d="M15,338.96v-5.16h-.87v-.76h1.7v5.92h-.83Z"/><path class="cls-4" d="M19.15,336.17v-.83h.27c.46,0,.88-.26.88-.82,0-.45-.34-.82-.79-.82s-.74.31-.79.83h-.83c0-.23.1-.66.33-.96.28-.37.78-.63,1.33-.63.92,0,1.59.68,1.59,1.64,0,.51-.16.8-.54,1.15.51.33.8.86.8,1.47,0,1.1-.79,1.88-1.92,1.88-1.04,0-1.9-.8-1.91-1.85h.83c.04.68.49,1.1,1.1,1.1s1.06-.5,1.06-1.09c0-.54-.38-1.06-1.13-1.06h-.27Z"/></svg>